<mxfile host="app.diagrams.net" modified="2023-09-25T12:57:42.501Z" agent="Mozilla/5.0 (Windows NT 10.0; Win64; x64) AppleWebKit/537.36 (KHTML, like Gecko) Chrome/116.0.0.0 Safari/537.36" etag="rHFerGvEzD6IvWtUbY2j" version="21.8.2" type="onedrive">
  <diagram name="Page-1" id="8_KH4Epl2k2O7n47w_kR">
    <mxGraphModel grid="1" page="1" gridSize="10" guides="1" tooltips="1" connect="1" arrows="1" fold="1" pageScale="1" pageWidth="1100" pageHeight="850" background="none" math="0" shadow="0">
      <root>
        <mxCell id="0" />
        <mxCell id="1" parent="0" />
        <mxCell id="EzKEqaqSvUSuouuFS710-9" value="" style="rounded=0;whiteSpace=wrap;html=1;fillColor=none;strokeWidth=3;" vertex="1" parent="1">
          <mxGeometry x="110" y="130" width="810" height="470" as="geometry" />
        </mxCell>
        <mxCell id="Abg2rRBnH5ucFDX9_y34-1" value="&lt;b style=&quot;font-size: 24px;&quot;&gt;&lt;font style=&quot;font-size: 24px;&quot;&gt;CONTROLLER&lt;/font&gt;&lt;/b&gt;" style="rounded=0;whiteSpace=wrap;html=1;fillColor=#dae8fc;strokeColor=#6c8ebf;fontSize=24;fontFamily=Garamond;" vertex="1" parent="1">
          <mxGeometry x="160" y="160" width="720" height="80" as="geometry" />
        </mxCell>
        <mxCell id="Abg2rRBnH5ucFDX9_y34-2" value="&lt;font style=&quot;font-size: 18px;&quot;&gt;&lt;b style=&quot;font-size: 18px;&quot;&gt;SEQUENCES BUFFER&lt;/b&gt;&lt;/font&gt;" style="rounded=0;whiteSpace=wrap;html=1;fillColor=#fff2cc;strokeColor=#d6b656;fontFamily=Garamond;fontSize=18;" vertex="1" parent="1">
          <mxGeometry x="150" y="320" width="140" height="200" as="geometry" />
        </mxCell>
        <mxCell id="Abg2rRBnH5ucFDX9_y34-3" value="&lt;font style=&quot;font-size: 18px;&quot;&gt;&lt;b style=&quot;font-size: 18px;&quot;&gt;MATRIX MEMORY&lt;/b&gt;&lt;/font&gt;" style="rounded=0;whiteSpace=wrap;html=1;fillColor=#f8cecc;strokeColor=#b85450;fontSize=18;fontFamily=Garamond;" vertex="1" parent="1">
          <mxGeometry x="550" y="320" width="140" height="90" as="geometry" />
        </mxCell>
        <mxCell id="Abg2rRBnH5ucFDX9_y34-4" value="&lt;b style=&quot;font-size: 18px;&quot;&gt;&lt;font style=&quot;font-size: 18px;&quot;&gt;TRACEBACK&lt;/font&gt;&lt;/b&gt;" style="rounded=0;whiteSpace=wrap;html=1;fillColor=#d5e8d4;strokeColor=#82b366;fontSize=18;fontFamily=Garamond;" vertex="1" parent="1">
          <mxGeometry x="750" y="320" width="140" height="200" as="geometry" />
        </mxCell>
        <mxCell id="Abg2rRBnH5ucFDX9_y34-5" value="" style="endArrow=classic;html=1;rounded=0;jumpSize=6;strokeWidth=3;exitX=1;exitY=0.5;exitDx=0;exitDy=0;entryX=0;entryY=0.5;entryDx=0;entryDy=0;" edge="1" parent="1" source="Abg2rRBnH5ucFDX9_y34-2" target="Abg2rRBnH5ucFDX9_y34-13">
          <mxGeometry width="50" height="50" relative="1" as="geometry">
            <mxPoint x="320" y="280" as="sourcePoint" />
            <mxPoint x="400" y="280" as="targetPoint" />
          </mxGeometry>
        </mxCell>
        <mxCell id="Abg2rRBnH5ucFDX9_y34-6" value="" style="endArrow=classic;html=1;rounded=0;exitX=1;exitY=0.5;exitDx=0;exitDy=0;strokeWidth=3;entryX=-0.001;entryY=0.225;entryDx=0;entryDy=0;entryPerimeter=0;" edge="1" parent="1" source="Abg2rRBnH5ucFDX9_y34-3" target="Abg2rRBnH5ucFDX9_y34-4">
          <mxGeometry width="50" height="50" relative="1" as="geometry">
            <mxPoint x="490" y="280" as="sourcePoint" />
            <mxPoint x="710" y="360" as="targetPoint" />
          </mxGeometry>
        </mxCell>
        <mxCell id="Abg2rRBnH5ucFDX9_y34-8" value="" style="endArrow=classic;html=1;rounded=0;entryX=0.5;entryY=0;entryDx=0;entryDy=0;strokeWidth=3;" edge="1" parent="1" target="Abg2rRBnH5ucFDX9_y34-2">
          <mxGeometry width="50" height="50" relative="1" as="geometry">
            <mxPoint x="220" y="240" as="sourcePoint" />
            <mxPoint x="540" y="230" as="targetPoint" />
          </mxGeometry>
        </mxCell>
        <mxCell id="Abg2rRBnH5ucFDX9_y34-9" value="" style="endArrow=classic;html=1;rounded=0;entryX=0.5;entryY=0;entryDx=0;entryDy=0;strokeWidth=3;exitX=0.639;exitY=1.005;exitDx=0;exitDy=0;exitPerimeter=0;" edge="1" parent="1" source="Abg2rRBnH5ucFDX9_y34-1" target="Abg2rRBnH5ucFDX9_y34-3">
          <mxGeometry width="50" height="50" relative="1" as="geometry">
            <mxPoint x="500" y="240" as="sourcePoint" />
            <mxPoint x="380" y="250" as="targetPoint" />
          </mxGeometry>
        </mxCell>
        <mxCell id="Abg2rRBnH5ucFDX9_y34-10" value="" style="endArrow=classic;html=1;rounded=0;entryX=0.5;entryY=0;entryDx=0;entryDy=0;strokeWidth=3;startArrow=classic;startFill=1;" edge="1" parent="1" target="Abg2rRBnH5ucFDX9_y34-4">
          <mxGeometry width="50" height="50" relative="1" as="geometry">
            <mxPoint x="820" y="240" as="sourcePoint" />
            <mxPoint x="830" y="250" as="targetPoint" />
          </mxGeometry>
        </mxCell>
        <mxCell id="Abg2rRBnH5ucFDX9_y34-13" value="&lt;b style=&quot;border-color: var(--border-color); font-size: 18px;&quot;&gt;&lt;font style=&quot;font-size: 18px;&quot;&gt;MATRIX CALCULATION&lt;/font&gt;&lt;/b&gt;" style="rounded=0;whiteSpace=wrap;html=1;fillColor=#e1d5e7;strokeColor=#9673a6;fontSize=18;fontFamily=Garamond;" vertex="1" parent="1">
          <mxGeometry x="350" y="320" width="140" height="200" as="geometry" />
        </mxCell>
        <mxCell id="Abg2rRBnH5ucFDX9_y34-29" value="" style="endArrow=classic;html=1;rounded=0;endFill=1;strokeWidth=2;" edge="1" parent="1">
          <mxGeometry width="50" height="50" relative="1" as="geometry">
            <mxPoint x="190" y="640" as="sourcePoint" />
            <mxPoint x="190" y="600" as="targetPoint" />
          </mxGeometry>
        </mxCell>
        <mxCell id="Abg2rRBnH5ucFDX9_y34-30" value="clk" style="edgeLabel;html=1;align=center;verticalAlign=middle;resizable=0;points=[];fontFamily=Garamond;fontSize=20;labelBackgroundColor=none;" vertex="1" connectable="0" parent="Abg2rRBnH5ucFDX9_y34-29">
          <mxGeometry x="-0.69" y="1" relative="1" as="geometry">
            <mxPoint y="16" as="offset" />
          </mxGeometry>
        </mxCell>
        <mxCell id="EzKEqaqSvUSuouuFS710-1" value="" style="endArrow=classic;html=1;rounded=0;entryX=-0.01;entryY=0.2;entryDx=0;entryDy=0;entryPerimeter=0;strokeWidth=2;" edge="1" parent="1" target="Abg2rRBnH5ucFDX9_y34-2">
          <mxGeometry width="50" height="50" relative="1" as="geometry">
            <mxPoint x="70" y="360" as="sourcePoint" />
            <mxPoint x="120" y="360" as="targetPoint" />
          </mxGeometry>
        </mxCell>
        <mxCell id="EzKEqaqSvUSuouuFS710-2" value="" style="endArrow=classic;html=1;rounded=0;entryX=-0.005;entryY=0.8;entryDx=0;entryDy=0;entryPerimeter=0;strokeWidth=2;" edge="1" parent="1" target="Abg2rRBnH5ucFDX9_y34-2">
          <mxGeometry width="50" height="50" relative="1" as="geometry">
            <mxPoint x="70" y="480" as="sourcePoint" />
            <mxPoint x="120" y="479.71" as="targetPoint" />
          </mxGeometry>
        </mxCell>
        <mxCell id="EzKEqaqSvUSuouuFS710-3" value="" style="endArrow=classic;html=1;rounded=0;endFill=1;strokeWidth=2;" edge="1" parent="1">
          <mxGeometry width="50" height="50" relative="1" as="geometry">
            <mxPoint x="240" y="640" as="sourcePoint" />
            <mxPoint x="240" y="600" as="targetPoint" />
          </mxGeometry>
        </mxCell>
        <mxCell id="EzKEqaqSvUSuouuFS710-4" value="resetN" style="edgeLabel;html=1;align=center;verticalAlign=middle;resizable=0;points=[];labelBackgroundColor=none;fontSize=20;fontFamily=Garamond;" vertex="1" connectable="0" parent="EzKEqaqSvUSuouuFS710-3">
          <mxGeometry x="-0.69" y="1" relative="1" as="geometry">
            <mxPoint y="16" as="offset" />
          </mxGeometry>
        </mxCell>
        <mxCell id="EzKEqaqSvUSuouuFS710-5" value="" style="endArrow=classic;html=1;rounded=0;exitX=0.5;exitY=1;exitDx=0;exitDy=0;jumpStyle=arc;jumpSize=10;strokeWidth=2;" edge="1" parent="1" source="q4FfbbER5tTHdtmgjmIS-1">
          <mxGeometry width="50" height="50" relative="1" as="geometry">
            <mxPoint x="395" y="511.0000000000002" as="sourcePoint" />
            <mxPoint x="960" y="570" as="targetPoint" />
            <Array as="points">
              <mxPoint x="620" y="570" />
            </Array>
          </mxGeometry>
        </mxCell>
        <mxCell id="EzKEqaqSvUSuouuFS710-6" value="" style="endArrow=classic;html=1;rounded=0;strokeWidth=2;" edge="1" parent="1">
          <mxGeometry width="50" height="50" relative="1" as="geometry">
            <mxPoint x="890" y="380" as="sourcePoint" />
            <mxPoint x="960" y="380" as="targetPoint" />
          </mxGeometry>
        </mxCell>
        <mxCell id="EzKEqaqSvUSuouuFS710-7" value="" style="endArrow=classic;html=1;rounded=0;strokeWidth=2;" edge="1" parent="1">
          <mxGeometry width="50" height="50" relative="1" as="geometry">
            <mxPoint x="890" y="460" as="sourcePoint" />
            <mxPoint x="960" y="460" as="targetPoint" />
          </mxGeometry>
        </mxCell>
        <mxCell id="EzKEqaqSvUSuouuFS710-8" value="" style="endArrow=classic;html=1;rounded=0;strokeWidth=2;" edge="1" parent="1">
          <mxGeometry width="50" height="50" relative="1" as="geometry">
            <mxPoint x="880" y="198.99999999999994" as="sourcePoint" />
            <mxPoint x="960" y="199.5" as="targetPoint" />
          </mxGeometry>
        </mxCell>
        <mxCell id="fRr5DihBkEnfRP6CWaTk-10" value="output_valid" style="edgeLabel;html=1;align=center;verticalAlign=middle;resizable=0;points=[];fontSize=20;fontFamily=Garamond;labelBackgroundColor=none;" vertex="1" connectable="0" parent="EzKEqaqSvUSuouuFS710-8">
          <mxGeometry x="0.5603" y="-2" relative="1" as="geometry">
            <mxPoint x="73" y="-4" as="offset" />
          </mxGeometry>
        </mxCell>
        <mxCell id="fRr5DihBkEnfRP6CWaTk-2" value="" style="endArrow=classic;html=1;rounded=0;entryX=0.5;entryY=0;entryDx=0;entryDy=0;strokeWidth=3;" edge="1" parent="1" target="Abg2rRBnH5ucFDX9_y34-13">
          <mxGeometry width="50" height="50" relative="1" as="geometry">
            <mxPoint x="420" y="240" as="sourcePoint" />
            <mxPoint x="230" y="330" as="targetPoint" />
          </mxGeometry>
        </mxCell>
        <mxCell id="fRr5DihBkEnfRP6CWaTk-3" value="" style="endArrow=classic;html=1;rounded=0;exitX=1.001;exitY=0.225;exitDx=0;exitDy=0;strokeWidth=3;startArrow=none;startFill=0;entryX=0;entryY=0.5;entryDx=0;entryDy=0;exitPerimeter=0;" edge="1" parent="1" source="Abg2rRBnH5ucFDX9_y34-13" target="Abg2rRBnH5ucFDX9_y34-3">
          <mxGeometry width="50" height="50" relative="1" as="geometry">
            <mxPoint x="490" y="419.40999999999997" as="sourcePoint" />
            <mxPoint x="550" y="419" as="targetPoint" />
          </mxGeometry>
        </mxCell>
        <mxCell id="fRr5DihBkEnfRP6CWaTk-6" value="&lt;span style=&quot;color: rgb(0, 0, 0); font-size: 20px; font-style: normal; font-variant-ligatures: normal; font-variant-caps: normal; font-weight: 400; letter-spacing: normal; orphans: 2; text-align: center; text-indent: 0px; text-transform: none; widows: 2; word-spacing: 0px; -webkit-text-stroke-width: 0px; text-decoration-thickness: initial; text-decoration-style: initial; text-decoration-color: initial; float: none; display: inline !important;&quot;&gt;query_sequence_in[7:0]&lt;/span&gt;" style="text;whiteSpace=wrap;html=1;fontSize=20;fontFamily=Garamond;labelBackgroundColor=none;" vertex="1" parent="1">
          <mxGeometry x="-123" y="340" width="200" height="30" as="geometry" />
        </mxCell>
        <mxCell id="fRr5DihBkEnfRP6CWaTk-7" value="&lt;span style=&quot;color: rgb(0, 0, 0); font-size: 20px; font-style: normal; font-variant-ligatures: normal; font-variant-caps: normal; font-weight: 400; letter-spacing: normal; orphans: 2; text-align: center; text-indent: 0px; text-transform: none; widows: 2; word-spacing: 0px; -webkit-text-stroke-width: 0px; text-decoration-thickness: initial; text-decoration-style: initial; text-decoration-color: initial; float: none; display: inline !important;&quot;&gt;database_sequence_in[7:0]&lt;/span&gt;" style="text;whiteSpace=wrap;html=1;fontSize=20;fontFamily=Garamond;labelBackgroundColor=none;" vertex="1" parent="1">
          <mxGeometry x="-145" y="460" width="150" height="30" as="geometry" />
        </mxCell>
        <mxCell id="fRr5DihBkEnfRP6CWaTk-9" value="&lt;span style=&quot;color: rgb(0, 0, 0); font-size: 20px; font-style: normal; font-variant-ligatures: normal; font-variant-caps: normal; font-weight: 400; letter-spacing: normal; orphans: 2; text-align: center; text-indent: 0px; text-transform: none; widows: 2; word-spacing: 0px; -webkit-text-stroke-width: 0px; text-decoration-thickness: initial; text-decoration-style: initial; text-decoration-color: initial; float: none; display: inline !important;&quot;&gt;score[6:0]&lt;/span&gt;" style="text;whiteSpace=wrap;html=1;fontSize=20;fontFamily=Garamond;labelBackgroundColor=none;" vertex="1" parent="1">
          <mxGeometry x="965" y="550" width="60" height="30" as="geometry" />
        </mxCell>
        <mxCell id="fRr5DihBkEnfRP6CWaTk-11" value="&lt;span style=&quot;color: rgb(0, 0, 0); font-size: 20px; font-style: normal; font-variant-ligatures: normal; font-variant-caps: normal; font-weight: 400; letter-spacing: normal; orphans: 2; text-align: center; text-indent: 0px; text-transform: none; widows: 2; word-spacing: 0px; -webkit-text-stroke-width: 0px; text-decoration-thickness: initial; text-decoration-style: initial; text-decoration-color: initial; float: none; display: inline !important;&quot;&gt;database_sequence_out[2:0]&lt;/span&gt;" style="text;whiteSpace=wrap;html=1;fontSize=20;fontFamily=Garamond;labelBackgroundColor=none;" vertex="1" parent="1">
          <mxGeometry x="966" y="441" width="150" height="30" as="geometry" />
        </mxCell>
        <mxCell id="fRr5DihBkEnfRP6CWaTk-12" value="&lt;span style=&quot;color: rgb(0, 0, 0); font-size: 20px; font-style: normal; font-variant-ligatures: normal; font-variant-caps: normal; font-weight: 400; letter-spacing: normal; orphans: 2; text-align: center; text-indent: 0px; text-transform: none; widows: 2; word-spacing: 0px; -webkit-text-stroke-width: 0px; text-decoration-thickness: initial; text-decoration-style: initial; text-decoration-color: initial; float: none; display: inline !important;&quot;&gt;query_sequence_out[2:0]&lt;/span&gt;" style="text;whiteSpace=wrap;html=1;fontSize=20;fontFamily=Garamond;labelBackgroundColor=none;" vertex="1" parent="1">
          <mxGeometry x="966" y="361" width="130" height="30" as="geometry" />
        </mxCell>
        <mxCell id="Abg2rRBnH5ucFDX9_y34-7" value="" style="endArrow=classic;html=1;rounded=0;exitX=0.5;exitY=1;exitDx=0;exitDy=0;entryX=0.5;entryY=1;entryDx=0;entryDy=0;strokeWidth=2;jumpStyle=arc;jumpSize=8;" edge="1" parent="1" source="Abg2rRBnH5ucFDX9_y34-2" target="Abg2rRBnH5ucFDX9_y34-4">
          <mxGeometry width="50" height="50" relative="1" as="geometry">
            <mxPoint x="490" y="280" as="sourcePoint" />
            <mxPoint x="540" y="230" as="targetPoint" />
            <Array as="points">
              <mxPoint x="220" y="550" />
              <mxPoint x="820" y="550" />
            </Array>
          </mxGeometry>
        </mxCell>
        <mxCell id="q4FfbbER5tTHdtmgjmIS-1" value="&lt;font style=&quot;font-size: 18px;&quot;&gt;&lt;b style=&quot;font-size: 18px;&quot;&gt;MAX REGISTERS&lt;/b&gt;&lt;/font&gt;" style="rounded=0;whiteSpace=wrap;html=1;fillColor=#ffe6cc;strokeColor=#d79b00;fontSize=18;fontFamily=Garamond;" vertex="1" parent="1">
          <mxGeometry x="550" y="430" width="140" height="90" as="geometry" />
        </mxCell>
        <mxCell id="q4FfbbER5tTHdtmgjmIS-3" value="" style="endArrow=classic;html=1;rounded=0;exitX=1;exitY=0.774;exitDx=0;exitDy=0;strokeWidth=3;startArrow=none;startFill=0;entryX=0;entryY=0.5;entryDx=0;entryDy=0;exitPerimeter=0;" edge="1" parent="1" source="Abg2rRBnH5ucFDX9_y34-13" target="q4FfbbER5tTHdtmgjmIS-1">
          <mxGeometry width="50" height="50" relative="1" as="geometry">
            <mxPoint x="500" y="375" as="sourcePoint" />
            <mxPoint x="560" y="375" as="targetPoint" />
          </mxGeometry>
        </mxCell>
        <mxCell id="q4FfbbER5tTHdtmgjmIS-4" value="" style="endArrow=classic;html=1;rounded=0;exitX=1;exitY=0.5;exitDx=0;exitDy=0;strokeWidth=3;entryX=-0.004;entryY=0.778;entryDx=0;entryDy=0;entryPerimeter=0;" edge="1" parent="1" source="q4FfbbER5tTHdtmgjmIS-1" target="Abg2rRBnH5ucFDX9_y34-4">
          <mxGeometry width="50" height="50" relative="1" as="geometry">
            <mxPoint x="700" y="375" as="sourcePoint" />
            <mxPoint x="760" y="375" as="targetPoint" />
          </mxGeometry>
        </mxCell>
        <mxCell id="ZynKD69qb9_6e-bBT_id-2" value="" style="endArrow=classic;html=1;rounded=0;entryX=-0.01;entryY=0.2;entryDx=0;entryDy=0;entryPerimeter=0;strokeWidth=2;" edge="1" parent="1">
          <mxGeometry width="50" height="50" relative="1" as="geometry">
            <mxPoint x="70" y="186" as="sourcePoint" />
            <mxPoint x="160" y="185.5" as="targetPoint" />
          </mxGeometry>
        </mxCell>
        <mxCell id="ZynKD69qb9_6e-bBT_id-3" value="&lt;font face=&quot;Garamond&quot; style=&quot;font-size: 20px;&quot;&gt;start&lt;/font&gt;" style="edgeLabel;html=1;align=center;verticalAlign=middle;resizable=0;points=[];labelBackgroundColor=none;" vertex="1" connectable="0" parent="ZynKD69qb9_6e-bBT_id-2">
          <mxGeometry x="-0.591" y="1" relative="1" as="geometry">
            <mxPoint x="-45" y="-1" as="offset" />
          </mxGeometry>
        </mxCell>
        <mxCell id="ZynKD69qb9_6e-bBT_id-4" value="" style="endArrow=classic;html=1;rounded=0;strokeWidth=2;" edge="1" parent="1">
          <mxGeometry width="50" height="50" relative="1" as="geometry">
            <mxPoint x="160" y="211.9" as="sourcePoint" />
            <mxPoint x="70" y="212" as="targetPoint" />
          </mxGeometry>
        </mxCell>
        <mxCell id="ZynKD69qb9_6e-bBT_id-5" value="&lt;font face=&quot;Garamond&quot; style=&quot;font-size: 20px;&quot;&gt;ready&lt;/font&gt;" style="edgeLabel;html=1;align=center;verticalAlign=middle;resizable=0;points=[];labelBackgroundColor=none;" vertex="1" connectable="0" parent="ZynKD69qb9_6e-bBT_id-4">
          <mxGeometry x="-0.591" y="1" relative="1" as="geometry">
            <mxPoint x="-103" y="-2" as="offset" />
          </mxGeometry>
        </mxCell>
      </root>
    </mxGraphModel>
  </diagram>
</mxfile>
